<?xml version="1.0" encoding="UTF-8" standalone="no"?>
<!DOCTYPE svg PUBLIC "-//W3C//DTD SVG 1.1//EN"
 "http://www.w3.org/Graphics/SVG/1.1/DTD/svg11.dtd">
<!-- Generated by graphviz version 2.47.0 (20210316.0004)
 -->
<!-- Title: dependencies Pages: 1 -->
<svg width="504pt" height="284pt"
 viewBox="0.00 0.00 504.00 284.00" xmlns="http://www.w3.org/2000/svg" xmlns:xlink="http://www.w3.org/1999/xlink">
<g id="graph0" class="graph" transform="scale(1 1) rotate(0) translate(4 280)">
<title>dependencies</title>
<polygon fill="white" stroke="transparent" points="-4,4 -4,-280 500,-280 500,4 -4,4"/>
<text text-anchor="start" x="227.01" y="-42.4" font-family="Times-12" font-weight="bold" font-size="14.00">Legend</text>
<polygon fill="#ffffb3" stroke="transparent" points="14,-10 14,-30 34,-30 34,-10 14,-10"/>
<text text-anchor="start" x="37.63" y="-15.4" font-family="Times-12" font-size="14.00"> &#160;Declarations</text>
<polygon fill="#8dd3c7" stroke="transparent" points="127,-10 127,-30 147,-30 147,-10 127,-10"/>
<text text-anchor="start" x="150.73" y="-15.4" font-family="Times-12" font-size="14.00"> &#160;Module</text>
<polygon fill="#80b1d3" stroke="transparent" points="213,-10 213,-30 233,-30 233,-10 213,-10"/>
<text text-anchor="start" x="236.78" y="-15.4" font-family="Times-12" font-size="14.00"> &#160;Bootstrap</text>
<polygon fill="#fdb462" stroke="transparent" points="310,-10 310,-30 330,-30 330,-10 310,-10"/>
<text text-anchor="start" x="333.67" y="-15.4" font-family="Times-12" font-size="14.00"> &#160;Providers</text>
<polygon fill="#fb8072" stroke="transparent" points="406,-10 406,-30 426,-30 426,-10 406,-10"/>
<text text-anchor="start" x="429.73" y="-15.4" font-family="Times-12" font-size="14.00"> &#160;Exports</text>
<g id="clust1" class="cluster">
<title>cluster_BidsModule</title>
<polygon fill="none" stroke="black" stroke-dasharray="1,5" points="98,-70 98,-268 398,-268 398,-70 98,-70"/>
</g>
<g id="clust4" class="cluster">
<title>cluster_BidsModule_exports</title>
<polygon fill="none" stroke="black" points="199,-208 199,-260 303,-260 303,-208 199,-208"/>
</g>
<g id="clust6" class="cluster">
<title>cluster_BidsModule_providers</title>
<polygon fill="none" stroke="black" points="258,-78 258,-130 390,-130 390,-78 258,-78"/>
</g>
<g id="clust3" class="cluster">
<title>cluster_BidsModule_imports</title>
<polygon fill="none" stroke="black" points="106,-78 106,-130 250,-130 250,-78 106,-78"/>
</g>
<!-- WebsocketsModule -->
<g id="node1" class="node">
<title>WebsocketsModule</title>
<polygon fill="#8dd3c7" stroke="black" points="241.69,-122 238.69,-126 217.69,-126 214.69,-122 114.31,-122 114.31,-86 241.69,-86 241.69,-122"/>
<text text-anchor="middle" x="178" y="-99.8" font-family="Times,serif" font-size="14.00">WebsocketsModule</text>
</g>
<!-- BidsModule -->
<g id="node2" class="node">
<title>BidsModule</title>
<polygon fill="#8dd3c7" stroke="black" points="293.72,-187 290.72,-191 269.72,-191 266.72,-187 208.28,-187 208.28,-151 293.72,-151 293.72,-187"/>
<text text-anchor="middle" x="251" y="-164.8" font-family="Times,serif" font-size="14.00">BidsModule</text>
</g>
<!-- WebsocketsModule&#45;&gt;BidsModule -->
<g id="edge1" class="edge">
<title>WebsocketsModule&#45;&gt;BidsModule</title>
<path fill="none" stroke="black" d="M224.99,-122.11C224.99,-122.11 224.99,-140.99 224.99,-140.99"/>
<polygon fill="black" stroke="black" points="221.49,-140.99 224.99,-150.99 228.49,-140.99 221.49,-140.99"/>
</g>
<!-- BidsService  -->
<g id="node3" class="node">
<title>BidsService </title>
<polygon fill="#fb8072" stroke="black" points="294.65,-252 207.35,-252 207.35,-216 294.65,-216 294.65,-252"/>
<text text-anchor="middle" x="251" y="-229.8" font-family="Times,serif" font-size="14.00">BidsService </text>
</g>
<!-- BidsModule&#45;&gt;BidsService  -->
<g id="edge2" class="edge">
<title>BidsModule&#45;&gt;BidsService </title>
<path fill="none" stroke="black" stroke-dasharray="5,2" d="M251,-187.11C251,-187.11 251,-205.99 251,-205.99"/>
<polygon fill="black" stroke="black" points="247.5,-205.99 251,-215.99 254.5,-205.99 247.5,-205.99"/>
</g>
<!-- BidsService -->
<g id="node4" class="node">
<title>BidsService</title>
<ellipse fill="#fdb462" stroke="black" cx="324" cy="-104" rx="57.9" ry="18"/>
<text text-anchor="middle" x="324" y="-99.8" font-family="Times,serif" font-size="14.00">BidsService</text>
</g>
<!-- BidsService&#45;&gt;BidsModule -->
<g id="edge3" class="edge">
<title>BidsService&#45;&gt;BidsModule</title>
<path fill="none" stroke="black" d="M279.96,-115.92C279.96,-115.92 279.96,-140.77 279.96,-140.77"/>
<polygon fill="black" stroke="black" points="276.46,-140.77 279.96,-150.77 283.46,-140.77 276.46,-140.77"/>
</g>
</g>
</svg>
