<?xml version="1.0" encoding="UTF-8" standalone="no"?>
<!DOCTYPE svg PUBLIC "-//W3C//DTD SVG 1.1//EN"
 "http://www.w3.org/Graphics/SVG/1.1/DTD/svg11.dtd">
<!-- Generated by graphviz version 2.47.0 (20210316.0004)
 -->
<!-- Title: dependencies Pages: 1 -->
<svg width="504pt" height="284pt"
 viewBox="0.00 0.00 504.00 284.00" xmlns="http://www.w3.org/2000/svg" xmlns:xlink="http://www.w3.org/1999/xlink">
<g id="graph0" class="graph" transform="scale(1 1) rotate(0) translate(4 280)">
<title>dependencies</title>
<polygon fill="white" stroke="transparent" points="-4,4 -4,-280 500,-280 500,4 -4,4"/>
<text text-anchor="start" x="227.01" y="-42.4" font-family="Times-12" font-weight="bold" font-size="14.00">Legend</text>
<polygon fill="#ffffb3" stroke="transparent" points="14,-10 14,-30 34,-30 34,-10 14,-10"/>
<text text-anchor="start" x="37.63" y="-15.4" font-family="Times-12" font-size="14.00"> &#160;Declarations</text>
<polygon fill="#8dd3c7" stroke="transparent" points="127,-10 127,-30 147,-30 147,-10 127,-10"/>
<text text-anchor="start" x="150.73" y="-15.4" font-family="Times-12" font-size="14.00"> &#160;Module</text>
<polygon fill="#80b1d3" stroke="transparent" points="213,-10 213,-30 233,-30 233,-10 213,-10"/>
<text text-anchor="start" x="236.78" y="-15.4" font-family="Times-12" font-size="14.00"> &#160;Bootstrap</text>
<polygon fill="#fdb462" stroke="transparent" points="310,-10 310,-30 330,-30 330,-10 310,-10"/>
<text text-anchor="start" x="333.67" y="-15.4" font-family="Times-12" font-size="14.00"> &#160;Providers</text>
<polygon fill="#fb8072" stroke="transparent" points="406,-10 406,-30 426,-30 426,-10 406,-10"/>
<text text-anchor="start" x="429.73" y="-15.4" font-family="Times-12" font-size="14.00"> &#160;Exports</text>
<g id="clust1" class="cluster">
<title>cluster_AuctionsModule</title>
<polygon fill="none" stroke="black" stroke-dasharray="1,5" points="81,-70 81,-268 415,-268 415,-70 81,-70"/>
</g>
<g id="clust3" class="cluster">
<title>cluster_AuctionsModule_imports</title>
<polygon fill="none" stroke="black" points="263,-78 263,-130 407,-130 407,-78 263,-78"/>
</g>
<g id="clust4" class="cluster">
<title>cluster_AuctionsModule_exports</title>
<polygon fill="none" stroke="black" points="189,-208 189,-260 317,-260 317,-208 189,-208"/>
</g>
<g id="clust6" class="cluster">
<title>cluster_AuctionsModule_providers</title>
<polygon fill="none" stroke="black" points="89,-78 89,-130 255,-130 255,-78 89,-78"/>
</g>
<!-- WebsocketsModule -->
<g id="node1" class="node">
<title>WebsocketsModule</title>
<polygon fill="#8dd3c7" stroke="black" points="398.69,-122 395.69,-126 374.69,-126 371.69,-122 271.31,-122 271.31,-86 398.69,-86 398.69,-122"/>
<text text-anchor="middle" x="335" y="-99.8" font-family="Times,serif" font-size="14.00">WebsocketsModule</text>
</g>
<!-- AuctionsModule -->
<g id="node2" class="node">
<title>AuctionsModule</title>
<polygon fill="#8dd3c7" stroke="black" points="308.1,-187 305.1,-191 284.1,-191 281.1,-187 197.9,-187 197.9,-151 308.1,-151 308.1,-187"/>
<text text-anchor="middle" x="253" y="-164.8" font-family="Times,serif" font-size="14.00">AuctionsModule</text>
</g>
<!-- WebsocketsModule&#45;&gt;AuctionsModule -->
<g id="edge1" class="edge">
<title>WebsocketsModule&#45;&gt;AuctionsModule</title>
<path fill="none" stroke="black" d="M289.73,-122.11C289.73,-122.11 289.73,-140.99 289.73,-140.99"/>
<polygon fill="black" stroke="black" points="286.23,-140.99 289.73,-150.99 293.23,-140.99 286.23,-140.99"/>
</g>
<!-- AuctionsService  -->
<g id="node3" class="node">
<title>AuctionsService </title>
<polygon fill="#fb8072" stroke="black" points="309.02,-252 196.98,-252 196.98,-216 309.02,-216 309.02,-252"/>
<text text-anchor="middle" x="253" y="-229.8" font-family="Times,serif" font-size="14.00">AuctionsService </text>
</g>
<!-- AuctionsModule&#45;&gt;AuctionsService  -->
<g id="edge2" class="edge">
<title>AuctionsModule&#45;&gt;AuctionsService </title>
<path fill="none" stroke="black" stroke-dasharray="5,2" d="M253,-187.11C253,-187.11 253,-205.99 253,-205.99"/>
<polygon fill="black" stroke="black" points="249.5,-205.99 253,-215.99 256.5,-205.99 249.5,-205.99"/>
</g>
<!-- AuctionsService -->
<g id="node4" class="node">
<title>AuctionsService</title>
<ellipse fill="#fdb462" stroke="black" cx="172" cy="-104" rx="74.72" ry="18"/>
<text text-anchor="middle" x="172" y="-99.8" font-family="Times,serif" font-size="14.00">AuctionsService</text>
</g>
<!-- AuctionsService&#45;&gt;AuctionsModule -->
<g id="edge3" class="edge">
<title>AuctionsService&#45;&gt;AuctionsModule</title>
<path fill="none" stroke="black" d="M222.4,-117.47C222.4,-117.47 222.4,-140.86 222.4,-140.86"/>
<polygon fill="black" stroke="black" points="218.91,-140.86 222.4,-150.86 225.91,-140.86 218.91,-140.86"/>
</g>
</g>
</svg>
