<?xml version="1.0" encoding="UTF-8" standalone="no"?>
<!DOCTYPE svg PUBLIC "-//W3C//DTD SVG 1.1//EN"
 "http://www.w3.org/Graphics/SVG/1.1/DTD/svg11.dtd">
<!-- Generated by graphviz version 2.47.0 (20210316.0004)
 -->
<!-- Title: dependencies Pages: 1 -->
<svg width="504pt" height="284pt"
 viewBox="0.00 0.00 504.00 284.00" xmlns="http://www.w3.org/2000/svg" xmlns:xlink="http://www.w3.org/1999/xlink">
<g id="graph0" class="graph" transform="scale(1 1) rotate(0) translate(4 280)">
<title>dependencies</title>
<polygon fill="white" stroke="transparent" points="-4,4 -4,-280 500,-280 500,4 -4,4"/>
<text text-anchor="start" x="227.01" y="-42.4" font-family="Times-12" font-weight="bold" font-size="14.00">Legend</text>
<polygon fill="#ffffb3" stroke="transparent" points="14,-10 14,-30 34,-30 34,-10 14,-10"/>
<text text-anchor="start" x="37.63" y="-15.4" font-family="Times-12" font-size="14.00"> &#160;Declarations</text>
<polygon fill="#8dd3c7" stroke="transparent" points="127,-10 127,-30 147,-30 147,-10 127,-10"/>
<text text-anchor="start" x="150.73" y="-15.4" font-family="Times-12" font-size="14.00"> &#160;Module</text>
<polygon fill="#80b1d3" stroke="transparent" points="213,-10 213,-30 233,-30 233,-10 213,-10"/>
<text text-anchor="start" x="236.78" y="-15.4" font-family="Times-12" font-size="14.00"> &#160;Bootstrap</text>
<polygon fill="#fdb462" stroke="transparent" points="310,-10 310,-30 330,-30 330,-10 310,-10"/>
<text text-anchor="start" x="333.67" y="-15.4" font-family="Times-12" font-size="14.00"> &#160;Providers</text>
<polygon fill="#fb8072" stroke="transparent" points="406,-10 406,-30 426,-30 426,-10 406,-10"/>
<text text-anchor="start" x="429.73" y="-15.4" font-family="Times-12" font-size="14.00"> &#160;Exports</text>
<g id="clust1" class="cluster">
<title>cluster_WebsocketsModule</title>
<polygon fill="none" stroke="black" stroke-dasharray="1,5" points="62,-70 62,-268 434,-268 434,-70 62,-70"/>
</g>
<g id="clust4" class="cluster">
<title>cluster_WebsocketsModule_exports</title>
<polygon fill="none" stroke="black" points="210,-208 210,-260 320,-260 320,-208 210,-208"/>
</g>
<g id="clust6" class="cluster">
<title>cluster_WebsocketsModule_providers</title>
<polygon fill="none" stroke="black" points="70,-78 70,-130 426,-130 426,-78 70,-78"/>
</g>
<!-- BidsGateway  -->
<g id="node1" class="node">
<title>BidsGateway </title>
<polygon fill="#fb8072" stroke="black" points="312.42,-252 217.58,-252 217.58,-216 312.42,-216 312.42,-252"/>
<text text-anchor="middle" x="265" y="-229.8" font-family="Times,serif" font-size="14.00">BidsGateway </text>
</g>
<!-- WebsocketsModule -->
<g id="node2" class="node">
<title>WebsocketsModule</title>
<polygon fill="#8dd3c7" stroke="black" points="328.69,-187 325.69,-191 304.69,-191 301.69,-187 201.31,-187 201.31,-151 328.69,-151 328.69,-187"/>
<text text-anchor="middle" x="265" y="-164.8" font-family="Times,serif" font-size="14.00">WebsocketsModule</text>
</g>
<!-- WebsocketsModule&#45;&gt;BidsGateway  -->
<g id="edge1" class="edge">
<title>WebsocketsModule&#45;&gt;BidsGateway </title>
<path fill="none" stroke="black" stroke-dasharray="5,2" d="M265,-187.11C265,-187.11 265,-205.99 265,-205.99"/>
<polygon fill="black" stroke="black" points="261.5,-205.99 265,-215.99 268.5,-205.99 261.5,-205.99"/>
</g>
<!-- BidsGateway -->
<g id="node3" class="node">
<title>BidsGateway</title>
<ellipse fill="#fdb462" stroke="black" cx="355" cy="-104" rx="63.12" ry="18"/>
<text text-anchor="middle" x="355" y="-99.8" font-family="Times,serif" font-size="14.00">BidsGateway</text>
</g>
<!-- BidsGateway&#45;&gt;WebsocketsModule -->
<g id="edge2" class="edge">
<title>BidsGateway&#45;&gt;WebsocketsModule</title>
<path fill="none" stroke="black" d="M310.27,-116.84C310.27,-116.84 310.27,-140.52 310.27,-140.52"/>
<polygon fill="black" stroke="black" points="306.77,-140.52 310.27,-150.52 313.77,-140.52 306.77,-140.52"/>
</g>
<!-- CustomLoggerService -->
<g id="node4" class="node">
<title>CustomLoggerService</title>
<ellipse fill="#fdb462" stroke="black" cx="176" cy="-104" rx="97.85" ry="18"/>
<text text-anchor="middle" x="176" y="-99.8" font-family="Times,serif" font-size="14.00">CustomLoggerService</text>
</g>
<!-- CustomLoggerService&#45;&gt;WebsocketsModule -->
<g id="edge3" class="edge">
<title>CustomLoggerService&#45;&gt;WebsocketsModule</title>
<path fill="none" stroke="black" d="M237.67,-118.1C237.67,-118.1 237.67,-140.72 237.67,-140.72"/>
<polygon fill="black" stroke="black" points="234.17,-140.72 237.67,-150.72 241.17,-140.72 234.17,-140.72"/>
</g>
</g>
</svg>
