<?xml version="1.0" encoding="UTF-8" standalone="no"?>
<!DOCTYPE svg PUBLIC "-//W3C//DTD SVG 1.1//EN"
 "http://www.w3.org/Graphics/SVG/1.1/DTD/svg11.dtd">
<!-- Generated by graphviz version 2.47.0 (20210316.0004)
 -->
<!-- Title: dependencies Pages: 1 -->
<svg width="524pt" height="211pt"
 viewBox="0.00 0.00 524.00 211.00" xmlns="http://www.w3.org/2000/svg" xmlns:xlink="http://www.w3.org/1999/xlink">
<g id="graph0" class="graph" transform="scale(1 1) rotate(0) translate(4 207)">
<title>dependencies</title>
<polygon fill="white" stroke="transparent" points="-4,4 -4,-207 520,-207 520,4 -4,4"/>
<text text-anchor="start" x="237.01" y="-42.4" font-family="Times-12" font-weight="bold" font-size="14.00">Legend</text>
<polygon fill="#ffffb3" stroke="transparent" points="24,-10 24,-30 44,-30 44,-10 24,-10"/>
<text text-anchor="start" x="47.63" y="-15.4" font-family="Times-12" font-size="14.00"> &#160;Declarations</text>
<polygon fill="#8dd3c7" stroke="transparent" points="137,-10 137,-30 157,-30 157,-10 137,-10"/>
<text text-anchor="start" x="160.73" y="-15.4" font-family="Times-12" font-size="14.00"> &#160;Module</text>
<polygon fill="#80b1d3" stroke="transparent" points="223,-10 223,-30 243,-30 243,-10 223,-10"/>
<text text-anchor="start" x="246.78" y="-15.4" font-family="Times-12" font-size="14.00"> &#160;Bootstrap</text>
<polygon fill="#fdb462" stroke="transparent" points="320,-10 320,-30 340,-30 340,-10 320,-10"/>
<text text-anchor="start" x="343.67" y="-15.4" font-family="Times-12" font-size="14.00"> &#160;Providers</text>
<polygon fill="#fb8072" stroke="transparent" points="416,-10 416,-30 436,-30 436,-10 416,-10"/>
<text text-anchor="start" x="439.73" y="-15.4" font-family="Times-12" font-size="14.00"> &#160;Exports</text>
<g id="clust1" class="cluster">
<title>cluster_AppModule</title>
<polygon fill="none" stroke="black" stroke-dasharray="1,5" points="8,-70 8,-195 508,-195 508,-70 8,-70"/>
</g>
<g id="clust3" class="cluster">
<title>cluster_AppModule_imports</title>
<polygon fill="none" stroke="black" points="16,-78 16,-130 500,-130 500,-78 16,-78"/>
</g>
<!-- AuctionsModule -->
<g id="node1" class="node">
<title>AuctionsModule</title>
<polygon fill="#8dd3c7" stroke="black" points="492.1,-122 489.1,-126 468.1,-126 465.1,-122 381.9,-122 381.9,-86 492.1,-86 492.1,-122"/>
<text text-anchor="middle" x="437" y="-99.8" font-family="Times,serif" font-size="14.00">AuctionsModule</text>
</g>
<!-- AppModule -->
<g id="node5" class="node">
<title>AppModule</title>
<polygon fill="#8dd3c7" stroke="black" points="309.66,-187 306.66,-191 285.66,-191 282.66,-187 226.34,-187 226.34,-151 309.66,-151 309.66,-187"/>
<text text-anchor="middle" x="268" y="-164.8" font-family="Times,serif" font-size="14.00">AppModule</text>
</g>
<!-- AuctionsModule&#45;&gt;AppModule -->
<g id="edge1" class="edge">
<title>AuctionsModule&#45;&gt;AppModule</title>
<path fill="none" stroke="black" d="M437,-122.11C437,-141.34 437,-169 437,-169 437,-169 319.78,-169 319.78,-169"/>
<polygon fill="black" stroke="black" points="319.78,-165.5 309.78,-169 319.78,-172.5 319.78,-165.5"/>
</g>
<!-- BidsModule -->
<g id="node2" class="node">
<title>BidsModule</title>
<polygon fill="#8dd3c7" stroke="black" points="363.72,-122 360.72,-126 339.72,-126 336.72,-122 278.28,-122 278.28,-86 363.72,-86 363.72,-122"/>
<text text-anchor="middle" x="321" y="-99.8" font-family="Times,serif" font-size="14.00">BidsModule</text>
</g>
<!-- BidsModule&#45;&gt;AppModule -->
<g id="edge2" class="edge">
<title>BidsModule&#45;&gt;AppModule</title>
<path fill="none" stroke="black" d="M294.11,-122.11C294.11,-122.11 294.11,-140.99 294.11,-140.99"/>
<polygon fill="black" stroke="black" points="290.61,-140.99 294.11,-150.99 297.61,-140.99 290.61,-140.99"/>
</g>
<!-- UsersModule -->
<g id="node3" class="node">
<title>UsersModule</title>
<polygon fill="#8dd3c7" stroke="black" points="260.92,-122 257.92,-126 236.92,-126 233.92,-122 169.08,-122 169.08,-86 260.92,-86 260.92,-122"/>
<text text-anchor="middle" x="215" y="-99.8" font-family="Times,serif" font-size="14.00">UsersModule</text>
</g>
<!-- UsersModule&#45;&gt;AppModule -->
<g id="edge3" class="edge">
<title>UsersModule&#45;&gt;AppModule</title>
<path fill="none" stroke="black" d="M243.44,-122.11C243.44,-122.11 243.44,-140.99 243.44,-140.99"/>
<polygon fill="black" stroke="black" points="239.94,-140.99 243.44,-150.99 246.94,-140.99 239.94,-140.99"/>
</g>
<!-- WebsocketsModule -->
<g id="node4" class="node">
<title>WebsocketsModule</title>
<polygon fill="#8dd3c7" stroke="black" points="151.69,-122 148.69,-126 127.69,-126 124.69,-122 24.31,-122 24.31,-86 151.69,-86 151.69,-122"/>
<text text-anchor="middle" x="88" y="-99.8" font-family="Times,serif" font-size="14.00">WebsocketsModule</text>
</g>
<!-- WebsocketsModule&#45;&gt;AppModule -->
<g id="edge4" class="edge">
<title>WebsocketsModule&#45;&gt;AppModule</title>
<path fill="none" stroke="black" d="M88,-122.11C88,-141.34 88,-169 88,-169 88,-169 216.25,-169 216.25,-169"/>
<polygon fill="black" stroke="black" points="216.25,-172.5 226.25,-169 216.25,-165.5 216.25,-172.5"/>
</g>
</g>
</svg>
