<?xml version="1.0" encoding="UTF-8" standalone="no"?>
<!DOCTYPE svg PUBLIC "-//W3C//DTD SVG 1.1//EN"
 "http://www.w3.org/Graphics/SVG/1.1/DTD/svg11.dtd">
<!-- Generated by graphviz version 2.47.0 (20210316.0004)
 -->
<!-- Title: dependencies Pages: 1 -->
<svg width="1100pt" height="371pt"
 viewBox="0.00 0.00 1100.00 371.00" xmlns="http://www.w3.org/2000/svg" xmlns:xlink="http://www.w3.org/1999/xlink">
<g id="graph0" class="graph" transform="scale(1 1) rotate(0) translate(4 367)">
<title>dependencies</title>
<polygon fill="white" stroke="transparent" points="-4,4 -4,-367 1096,-367 1096,4 -4,4"/>
<text text-anchor="start" x="525.01" y="-42.4" font-family="Times-12" font-weight="bold" font-size="14.00">Legend</text>
<polygon fill="#ffffb3" stroke="transparent" points="312,-10 312,-30 332,-30 332,-10 312,-10"/>
<text text-anchor="start" x="335.63" y="-15.4" font-family="Times-12" font-size="14.00"> &#160;Declarations</text>
<polygon fill="#8dd3c7" stroke="transparent" points="425,-10 425,-30 445,-30 445,-10 425,-10"/>
<text text-anchor="start" x="448.73" y="-15.4" font-family="Times-12" font-size="14.00"> &#160;Module</text>
<polygon fill="#80b1d3" stroke="transparent" points="511,-10 511,-30 531,-30 531,-10 511,-10"/>
<text text-anchor="start" x="534.78" y="-15.4" font-family="Times-12" font-size="14.00"> &#160;Bootstrap</text>
<polygon fill="#fdb462" stroke="transparent" points="608,-10 608,-30 628,-30 628,-10 608,-10"/>
<text text-anchor="start" x="631.67" y="-15.4" font-family="Times-12" font-size="14.00"> &#160;Providers</text>
<polygon fill="#fb8072" stroke="transparent" points="704,-10 704,-30 724,-30 724,-10 704,-10"/>
<text text-anchor="start" x="727.73" y="-15.4" font-family="Times-12" font-size="14.00"> &#160;Exports</text>
<g id="clust1" class="cluster">
<title>cluster_AppModule</title>
<polygon fill="none" stroke="black" stroke-dasharray="1,5" points="212,-146 212,-347 490,-347 490,-146 212,-146"/>
</g>
<g id="clust3" class="cluster">
<title>cluster_AppModule_imports</title>
<polygon fill="none" stroke="black" points="229,-154 229,-271 482,-271 482,-154 229,-154"/>
</g>
<g id="clust7" class="cluster">
<title>cluster_AuctionsModule</title>
<polygon fill="none" stroke="black" stroke-dasharray="1,5" points="498,-287 498,-355 816,-355 816,-287 498,-287"/>
</g>
<g id="clust10" class="cluster">
<title>cluster_AuctionsModule_exports</title>
<polygon fill="none" stroke="black" points="680,-295 680,-347 808,-347 808,-295 680,-295"/>
</g>
<g id="clust12" class="cluster">
<title>cluster_AuctionsModule_providers</title>
<polygon fill="none" stroke="black" points="506,-295 506,-347 672,-347 672,-295 506,-295"/>
</g>
<g id="clust13" class="cluster">
<title>cluster_BidsModule</title>
<polygon fill="none" stroke="black" stroke-dasharray="1,5" points="824,-287 824,-355 1084,-355 1084,-287 824,-287"/>
</g>
<g id="clust16" class="cluster">
<title>cluster_BidsModule_exports</title>
<polygon fill="none" stroke="black" points="972,-295 972,-347 1076,-347 1076,-295 972,-295"/>
</g>
<g id="clust18" class="cluster">
<title>cluster_BidsModule_providers</title>
<polygon fill="none" stroke="black" points="832,-295 832,-347 964,-347 964,-295 832,-295"/>
</g>
<g id="clust19" class="cluster">
<title>cluster_UsersModule</title>
<polygon fill="none" stroke="black" stroke-dasharray="1,5" points="498,-211 498,-279 1007,-279 1007,-211 498,-211"/>
</g>
<g id="clust22" class="cluster">
<title>cluster_UsersModule_exports</title>
<polygon fill="none" stroke="black" points="786,-219 786,-271 999,-271 999,-219 786,-219"/>
</g>
<g id="clust24" class="cluster">
<title>cluster_UsersModule_providers</title>
<polygon fill="none" stroke="black" points="506,-219 506,-271 778,-271 778,-219 506,-219"/>
</g>
<g id="clust25" class="cluster">
<title>cluster_WebsocketsModule</title>
<polygon fill="none" stroke="black" stroke-dasharray="1,5" points="8,-70 8,-138 498,-138 498,-70 8,-70"/>
</g>
<g id="clust28" class="cluster">
<title>cluster_WebsocketsModule_exports</title>
<polygon fill="none" stroke="black" points="380,-78 380,-130 490,-130 490,-78 380,-78"/>
</g>
<g id="clust30" class="cluster">
<title>cluster_WebsocketsModule_providers</title>
<polygon fill="none" stroke="black" points="16,-78 16,-130 372,-130 372,-78 16,-78"/>
</g>
<!-- AuctionsModule -->
<g id="node1" class="node">
<title>AuctionsModule</title>
<polygon fill="#8dd3c7" stroke="black" points="370.1,-263 367.1,-267 346.1,-267 343.1,-263 259.9,-263 259.9,-227 370.1,-227 370.1,-263"/>
<text text-anchor="middle" x="315" y="-240.8" font-family="Times,serif" font-size="14.00">AuctionsModule</text>
</g>
<!-- AppModule -->
<g id="node5" class="node">
<title>AppModule</title>
<polygon fill="#8dd3c7" stroke="black" points="329.66,-339 326.66,-343 305.66,-343 302.66,-339 246.34,-339 246.34,-303 329.66,-303 329.66,-339"/>
<text text-anchor="middle" x="288" y="-316.8" font-family="Times,serif" font-size="14.00">AppModule</text>
</g>
<!-- AuctionsModule&#45;&gt;AppModule -->
<g id="edge1" class="edge">
<title>AuctionsModule&#45;&gt;AppModule</title>
<path fill="none" stroke="black" d="M294.89,-263.01C294.89,-263.01 294.89,-292.85 294.89,-292.85"/>
<polygon fill="black" stroke="black" points="291.39,-292.85 294.89,-302.85 298.39,-292.85 291.39,-292.85"/>
</g>
<!-- AuctionsService  -->
<g id="node6" class="node">
<title>AuctionsService </title>
<polygon fill="#fb8072" stroke="black" points="800.02,-339 687.98,-339 687.98,-303 800.02,-303 800.02,-339"/>
<text text-anchor="middle" x="744" y="-316.8" font-family="Times,serif" font-size="14.00">AuctionsService </text>
</g>
<!-- AuctionsModule&#45;&gt;AuctionsService  -->
<g id="edge6" class="edge">
<title>AuctionsModule&#45;&gt;AuctionsService </title>
<path fill="none" stroke="black" stroke-dasharray="5,2" d="M343.23,-263.15C343.23,-276.74 343.23,-293 343.23,-293 343.23,-293 728.81,-293 728.81,-293 728.81,-293 728.81,-293.98 728.81,-293.98"/>
<polygon fill="black" stroke="black" points="725.31,-292.79 728.81,-302.79 732.31,-292.79 725.31,-292.79"/>
</g>
<!-- BidsModule -->
<g id="node2" class="node">
<title>BidsModule</title>
<polygon fill="#8dd3c7" stroke="black" points="473.72,-263 470.72,-267 449.72,-267 446.72,-263 388.28,-263 388.28,-227 473.72,-227 473.72,-263"/>
<text text-anchor="middle" x="431" y="-240.8" font-family="Times,serif" font-size="14.00">BidsModule</text>
</g>
<!-- BidsModule&#45;&gt;AppModule -->
<g id="edge2" class="edge">
<title>BidsModule&#45;&gt;AppModule</title>
<path fill="none" stroke="black" d="M452.31,-263.01C452.31,-285.49 452.31,-321 452.31,-321 452.31,-321 339.89,-321 339.89,-321"/>
<polygon fill="black" stroke="black" points="339.89,-317.5 329.89,-321 339.89,-324.5 339.89,-317.5"/>
</g>
<!-- BidsService  -->
<g id="node8" class="node">
<title>BidsService </title>
<polygon fill="#fb8072" stroke="black" points="1067.65,-339 980.35,-339 980.35,-303 1067.65,-303 1067.65,-339"/>
<text text-anchor="middle" x="1024" y="-316.8" font-family="Times,serif" font-size="14.00">BidsService </text>
</g>
<!-- BidsModule&#45;&gt;BidsService  -->
<g id="edge9" class="edge">
<title>BidsModule&#45;&gt;BidsService </title>
<path fill="none" stroke="black" stroke-dasharray="5,2" d="M409.69,-263.21C409.69,-268.55 409.69,-273 409.69,-273 409.69,-273 985.61,-273 985.61,-273 985.61,-273 985.61,-292.85 985.61,-292.85"/>
<polygon fill="black" stroke="black" points="982.11,-292.85 985.61,-302.85 989.11,-292.85 982.11,-292.85"/>
</g>
<!-- UsersModule -->
<g id="node3" class="node">
<title>UsersModule</title>
<polygon fill="#8dd3c7" stroke="black" points="473.92,-198 470.92,-202 449.92,-202 446.92,-198 382.08,-198 382.08,-162 473.92,-162 473.92,-198"/>
<text text-anchor="middle" x="428" y="-175.8" font-family="Times,serif" font-size="14.00">UsersModule</text>
</g>
<!-- UsersModule&#45;&gt;AppModule -->
<g id="edge3" class="edge">
<title>UsersModule&#45;&gt;AppModule</title>
<path fill="none" stroke="black" d="M382.11,-180C378.48,-180 376.17,-180 376.17,-180 376.17,-180 376.17,-312 376.17,-312 376.17,-312 339.76,-312 339.76,-312"/>
<polygon fill="black" stroke="black" points="339.76,-308.5 329.76,-312 339.76,-315.5 339.76,-308.5"/>
</g>
<!-- JwtStrategy  -->
<g id="node10" class="node">
<title>JwtStrategy </title>
<polygon fill="#fb8072" stroke="black" points="990.6,-263 905.4,-263 905.4,-227 990.6,-227 990.6,-263"/>
<text text-anchor="middle" x="948" y="-240.8" font-family="Times,serif" font-size="14.00">JwtStrategy </text>
</g>
<!-- UsersModule&#45;&gt;JwtStrategy  -->
<g id="edge11" class="edge">
<title>UsersModule&#45;&gt;JwtStrategy </title>
<path fill="none" stroke="black" stroke-dasharray="5,2" d="M474.15,-170C601.41,-170 948,-170 948,-170 948,-170 948,-216.84 948,-216.84"/>
<polygon fill="black" stroke="black" points="944.5,-216.84 948,-226.84 951.5,-216.84 944.5,-216.84"/>
</g>
<!-- UsersService  -->
<g id="node11" class="node">
<title>UsersService </title>
<polygon fill="#fb8072" stroke="black" points="887.85,-263 794.15,-263 794.15,-227 887.85,-227 887.85,-263"/>
<text text-anchor="middle" x="841" y="-240.8" font-family="Times,serif" font-size="14.00">UsersService </text>
</g>
<!-- UsersModule&#45;&gt;UsersService  -->
<g id="edge12" class="edge">
<title>UsersModule&#45;&gt;UsersService </title>
<path fill="none" stroke="black" stroke-dasharray="5,2" d="M473.78,-177C581.31,-177 841,-177 841,-177 841,-177 841,-216.78 841,-216.78"/>
<polygon fill="black" stroke="black" points="837.5,-216.78 841,-226.78 844.5,-216.78 837.5,-216.78"/>
</g>
<!-- WebsocketsModule -->
<g id="node4" class="node">
<title>WebsocketsModule</title>
<polygon fill="#8dd3c7" stroke="black" points="364.69,-198 361.69,-202 340.69,-202 337.69,-198 237.31,-198 237.31,-162 364.69,-162 364.69,-198"/>
<text text-anchor="middle" x="301" y="-175.8" font-family="Times,serif" font-size="14.00">WebsocketsModule</text>
</g>
<!-- WebsocketsModule&#45;&gt;AuctionsModule -->
<g id="edge5" class="edge">
<title>WebsocketsModule&#45;&gt;AuctionsModule</title>
<path fill="none" stroke="black" d="M312.27,-198.11C312.27,-198.11 312.27,-216.99 312.27,-216.99"/>
<polygon fill="black" stroke="black" points="308.77,-216.99 312.27,-226.99 315.77,-216.99 308.77,-216.99"/>
</g>
<!-- WebsocketsModule&#45;&gt;BidsModule -->
<g id="edge8" class="edge">
<title>WebsocketsModule&#45;&gt;BidsModule</title>
<path fill="none" stroke="black" d="M364.88,-189C373.38,-189 379.23,-189 379.23,-189 379.23,-189 379.23,-245 379.23,-245 379.23,-245 380.13,-245 380.13,-245"/>
<polygon fill="black" stroke="black" points="378.25,-248.5 388.25,-245 378.25,-241.5 378.25,-248.5"/>
</g>
<!-- WebsocketsModule&#45;&gt;AppModule -->
<g id="edge4" class="edge">
<title>WebsocketsModule&#45;&gt;AppModule</title>
<path fill="none" stroke="black" d="M253.06,-198.14C253.06,-198.14 253.06,-292.93 253.06,-292.93"/>
<polygon fill="black" stroke="black" points="249.56,-292.92 253.06,-302.93 256.56,-292.93 249.56,-292.92"/>
</g>
<!-- BidsGateway  -->
<g id="node14" class="node">
<title>BidsGateway </title>
<polygon fill="#fb8072" stroke="black" points="482.42,-122 387.58,-122 387.58,-86 482.42,-86 482.42,-122"/>
<text text-anchor="middle" x="435" y="-99.8" font-family="Times,serif" font-size="14.00">BidsGateway </text>
</g>
<!-- WebsocketsModule&#45;&gt;BidsGateway  -->
<g id="edge15" class="edge">
<title>WebsocketsModule&#45;&gt;BidsGateway </title>
<path fill="none" stroke="black" stroke-dasharray="5,2" d="M364.84,-171C369.9,-171 373.11,-171 373.11,-171 373.11,-171 373.11,-104 373.11,-104 373.11,-104 377.46,-104 377.46,-104"/>
<polygon fill="black" stroke="black" points="377.46,-107.5 387.46,-104 377.46,-100.5 377.46,-107.5"/>
</g>
<!-- AuctionsService -->
<g id="node7" class="node">
<title>AuctionsService</title>
<ellipse fill="#fdb462" stroke="black" cx="589" cy="-321" rx="74.72" ry="18"/>
<text text-anchor="middle" x="589" y="-316.8" font-family="Times,serif" font-size="14.00">AuctionsService</text>
</g>
<!-- AuctionsService&#45;&gt;AuctionsModule -->
<g id="edge7" class="edge">
<title>AuctionsService&#45;&gt;AuctionsModule</title>
<path fill="none" stroke="black" d="M523.97,-330C455.23,-330 356.64,-330 356.64,-330 356.64,-330 356.64,-273.03 356.64,-273.03"/>
<polygon fill="black" stroke="black" points="360.14,-273.03 356.64,-263.03 353.14,-273.03 360.14,-273.03"/>
</g>
<!-- BidsService -->
<g id="node9" class="node">
<title>BidsService</title>
<ellipse fill="#fdb462" stroke="black" cx="898" cy="-321" rx="57.9" ry="18"/>
<text text-anchor="middle" x="898" y="-316.8" font-family="Times,serif" font-size="14.00">BidsService</text>
</g>
<!-- BidsService&#45;&gt;BidsModule -->
<g id="edge10" class="edge">
<title>BidsService&#45;&gt;BidsModule</title>
<path fill="none" stroke="black" d="M863.99,-306.42C863.99,-295.7 863.99,-283 863.99,-283 863.99,-283 431,-283 431,-283 431,-283 431,-273.11 431,-273.11"/>
<polygon fill="black" stroke="black" points="434.5,-273.11 431,-263.11 427.5,-273.11 434.5,-273.11"/>
</g>
<!-- JwtStrategy -->
<g id="node12" class="node">
<title>JwtStrategy</title>
<ellipse fill="#fdb462" stroke="black" cx="713" cy="-245" rx="56.76" ry="18"/>
<text text-anchor="middle" x="713" y="-240.8" font-family="Times,serif" font-size="14.00">JwtStrategy</text>
</g>
<!-- JwtStrategy&#45;&gt;UsersModule -->
<g id="edge13" class="edge">
<title>JwtStrategy&#45;&gt;UsersModule</title>
<path fill="none" stroke="black" d="M713,-226.7C713,-208.73 713,-184 713,-184 713,-184 483.79,-184 483.79,-184"/>
<polygon fill="black" stroke="black" points="483.79,-180.5 473.79,-184 483.79,-187.5 483.79,-180.5"/>
</g>
<!-- UsersService -->
<g id="node13" class="node">
<title>UsersService</title>
<ellipse fill="#fdb462" stroke="black" cx="576" cy="-245" rx="61.95" ry="18"/>
<text text-anchor="middle" x="576" y="-240.8" font-family="Times,serif" font-size="14.00">UsersService</text>
</g>
<!-- UsersService&#45;&gt;UsersModule -->
<g id="edge14" class="edge">
<title>UsersService&#45;&gt;UsersModule</title>
<path fill="none" stroke="black" d="M576,-226.72C576,-211.05 576,-191 576,-191 576,-191 484.02,-191 484.02,-191"/>
<polygon fill="black" stroke="black" points="484.02,-187.5 474.02,-191 484.02,-194.5 484.02,-187.5"/>
</g>
<!-- BidsGateway -->
<g id="node15" class="node">
<title>BidsGateway</title>
<ellipse fill="#fdb462" stroke="black" cx="301" cy="-104" rx="63.12" ry="18"/>
<text text-anchor="middle" x="301" y="-99.8" font-family="Times,serif" font-size="14.00">BidsGateway</text>
</g>
<!-- BidsGateway&#45;&gt;WebsocketsModule -->
<g id="edge16" class="edge">
<title>BidsGateway&#45;&gt;WebsocketsModule</title>
<path fill="none" stroke="black" d="M301,-122.01C301,-122.01 301,-151.85 301,-151.85"/>
<polygon fill="black" stroke="black" points="297.5,-151.85 301,-161.85 304.5,-151.85 297.5,-151.85"/>
</g>
<!-- CustomLoggerService -->
<g id="node16" class="node">
<title>CustomLoggerService</title>
<ellipse fill="#fdb462" stroke="black" cx="122" cy="-104" rx="97.85" ry="18"/>
<text text-anchor="middle" x="122" y="-99.8" font-family="Times,serif" font-size="14.00">CustomLoggerService</text>
</g>
<!-- CustomLoggerService&#45;&gt;WebsocketsModule -->
<g id="edge17" class="edge">
<title>CustomLoggerService&#45;&gt;WebsocketsModule</title>
<path fill="none" stroke="black" d="M122,-122.01C122,-144.49 122,-180 122,-180 122,-180 227.39,-180 227.39,-180"/>
<polygon fill="black" stroke="black" points="227.39,-183.5 237.39,-180 227.39,-176.5 227.39,-183.5"/>
</g>
</g>
</svg>
